# xmcd
#
# Track frame offsets: 
#        150
#        21731
#        42685
#        61976
#        80204
#        98099
#        123730
#        147036
#        171965
#        195164
#        212334
#        229092
#
# Disc length: 3303 seconds
#
# Revision: 0
# Processed by: cddbd v1.5.2PL0 Copyright (c) Steve Scherf et al.
# Submitted via: ExactAudioCopy v1.0b3
#
DISCID=ab0ce50c
DTITLE=Various Artist - Viet Nam Que Huong Ngay Em Lon
DYEAR=1987
DGENRE=
TTITLE0=Huong Lan - Nua dem bien gioi
TTITLE1=Nhu Mai - Loi cho nguoi yeu nho
TTITLE2=Ngoc Lan - Goi em hanh ly
TTITLE3=Vu Khanh - Tinh mua chinh chien
TTITLE4=Hai Ly - Anh giai phong toi hay
TTITLE5=Bich Ha - Toi co nguoi yeu
TTITLE6=Huong Lan - Tinh hoai huong
TTITLE7=Ngoc Lan - Muoi nam tinh cu
TTITLE8=Ha Mai Lan - Ly ca phe cuoi cung
TTITLE9=Luu Hong - Tinh nuoc
TTITLE10=Le Thu - Huong ve Ha Noi
TTITLE11=Nhu Mai - Hen ve
EXTD=
EXTT0=
EXTT1=
EXTT2=
EXTT3=
EXTT4=
EXTT5=
EXTT6=
EXTT7=
EXTT8=
EXTT9=
EXTT10=
EXTT11=
PLAYORDER=
